 <svg
  width="57"
  height="40"
  viewBox="0 0 57 40"
  fill="none"
  xmlns="http://www.w3.org/2000/svg"
>
  <path
    d="M23.9268 19.2031V20.5635H18.6426V19.2031H23.9268ZM19.0664 15.0469V25H17.3506V15.0469H19.0664ZM25.2461 15.0469V25H23.5371V15.0469H25.2461ZM30.3867 25.1367C29.8398 25.1367 29.3454 25.0479 28.9033 24.8701C28.4658 24.6878 28.0921 24.4349 27.7822 24.1113C27.4769 23.7878 27.2422 23.4072 27.0781 22.9697C26.9141 22.5322 26.832 22.0605 26.832 21.5547V21.2812C26.832 20.7025 26.9163 20.1784 27.085 19.709C27.2536 19.2396 27.4883 18.8385 27.7891 18.5059C28.0898 18.1686 28.4453 17.9111 28.8555 17.7334C29.2656 17.5557 29.71 17.4668 30.1885 17.4668C30.7171 17.4668 31.1797 17.5557 31.5762 17.7334C31.9727 17.9111 32.3008 18.1618 32.5605 18.4854C32.8249 18.8044 33.0208 19.1849 33.1484 19.627C33.2806 20.069 33.3467 20.5566 33.3467 21.0898V21.7939H27.6318V20.6113H31.7197V20.4814C31.7106 20.1852 31.6514 19.9072 31.542 19.6475C31.4372 19.3877 31.2754 19.1781 31.0566 19.0186C30.8379 18.859 30.5462 18.7793 30.1816 18.7793C29.9082 18.7793 29.6644 18.8385 29.4502 18.957C29.2406 19.071 29.0651 19.2373 28.9238 19.4561C28.7826 19.6748 28.6732 19.9391 28.5957 20.249C28.5228 20.5544 28.4863 20.8984 28.4863 21.2812V21.5547C28.4863 21.8783 28.5296 22.179 28.6162 22.457C28.7074 22.7305 28.8395 22.9697 29.0127 23.1748C29.1859 23.3799 29.3955 23.5417 29.6416 23.6602C29.8877 23.7741 30.168 23.8311 30.4824 23.8311C30.8789 23.8311 31.2321 23.7513 31.542 23.5918C31.8519 23.4323 32.1208 23.2067 32.3486 22.915L33.2168 23.7559C33.0573 23.9883 32.8499 24.2116 32.5947 24.4258C32.3395 24.6354 32.0273 24.8063 31.6582 24.9385C31.2936 25.0706 30.8698 25.1367 30.3867 25.1367ZM37.9814 17.6035V25H36.3271V17.6035H37.9814ZM40.4082 17.6035V18.9023H33.9414V17.6035H40.4082Z"
    fill="#FF5500"
  />
  <rect
    x="0.5"
    y="0.5"
    width="56"
    height="39"
    rx="7.5"
    stroke="#FF5500"
  />
</svg>