 <svg
  width="51"
  height="40"
  viewBox="0 0 51 40"
  fill="none"
  xmlns="http://www.w3.org/2000/svg"
>
  <rect width="51" height="40" rx="8" fill="#FF5500" />
  <path
    d="M25.3564 23.6396V25H18.0215V23.6396H25.3564ZM18.4453 23.6396V27.4473H16.8047L16.7432 23.6396H18.4453ZM26.6826 23.6396L26.5801 27.4404H24.9668V23.6396H26.6826ZM24.1533 15.0469V16.4141H19.5596V15.0469H24.1533ZM25.4658 15.0469V25H23.7568V15.0469H25.4658ZM19.2178 15.0469H20.9336L20.6943 19.0801C20.6579 19.7181 20.5918 20.2923 20.4961 20.8027C20.4004 21.3132 20.2842 21.7712 20.1475 22.1768C20.0153 22.5778 19.8649 22.9333 19.6963 23.2432C19.5277 23.5485 19.3477 23.8128 19.1562 24.0361C18.9648 24.2594 18.7689 24.4508 18.5684 24.6104C18.3724 24.7653 18.1787 24.8952 17.9873 25H17.0713V23.6396H17.5156C17.6387 23.5257 17.7754 23.3617 17.9258 23.1475C18.0762 22.9287 18.222 22.6439 18.3633 22.293C18.5091 21.9375 18.6367 21.4977 18.7461 20.9736C18.8555 20.4495 18.9307 19.8184 18.9717 19.0801L19.2178 15.0469ZM31.9873 23.5166V19.9893C31.9873 19.7249 31.9395 19.4971 31.8438 19.3057C31.748 19.1143 31.6022 18.9661 31.4062 18.8613C31.2148 18.7565 30.9733 18.7041 30.6816 18.7041C30.4128 18.7041 30.1803 18.7497 29.9844 18.8408C29.7884 18.932 29.6357 19.055 29.5264 19.21C29.417 19.3649 29.3623 19.5404 29.3623 19.7363H27.7217C27.7217 19.4447 27.7923 19.1621 27.9336 18.8887C28.0749 18.6152 28.2799 18.3714 28.5488 18.1572C28.8177 17.943 29.139 17.7744 29.5127 17.6514C29.8864 17.5283 30.3057 17.4668 30.7705 17.4668C31.3265 17.4668 31.8187 17.5602 32.2471 17.7471C32.68 17.9339 33.0195 18.2165 33.2656 18.5947C33.5163 18.9684 33.6416 19.4378 33.6416 20.0029V23.291C33.6416 23.6283 33.6644 23.9313 33.71 24.2002C33.7601 24.4645 33.8307 24.6947 33.9219 24.8906V25H32.2334C32.1559 24.8223 32.0944 24.5967 32.0488 24.3232C32.0078 24.0452 31.9873 23.7764 31.9873 23.5166ZM32.2266 20.502L32.2402 21.5205H31.0576C30.7523 21.5205 30.4834 21.5501 30.251 21.6094C30.0186 21.6641 29.8249 21.7461 29.6699 21.8555C29.515 21.9648 29.3988 22.097 29.3213 22.252C29.2438 22.4069 29.2051 22.5824 29.2051 22.7783C29.2051 22.9743 29.2507 23.1543 29.3418 23.3184C29.4329 23.4779 29.5651 23.6032 29.7383 23.6943C29.916 23.7855 30.1302 23.8311 30.3809 23.8311C30.7181 23.8311 31.012 23.7627 31.2627 23.626C31.5179 23.4847 31.7184 23.3138 31.8643 23.1133C32.0101 22.9082 32.0876 22.7145 32.0967 22.5322L32.6299 23.2637C32.5752 23.4505 32.4818 23.651 32.3496 23.8652C32.2174 24.0794 32.0443 24.2845 31.8301 24.4805C31.6204 24.6719 31.3675 24.8291 31.0713 24.9521C30.7796 25.0752 30.4424 25.1367 30.0596 25.1367C29.5765 25.1367 29.1458 25.041 28.7676 24.8496C28.3893 24.6536 28.0931 24.3916 27.8789 24.0635C27.6647 23.7308 27.5576 23.3548 27.5576 22.9355C27.5576 22.5436 27.6305 22.1973 27.7764 21.8965C27.9268 21.5911 28.1455 21.3359 28.4326 21.1309C28.7243 20.9258 29.0798 20.7708 29.499 20.666C29.9183 20.5566 30.3968 20.502 30.9346 20.502H32.2266Z"
    fill="white"
  />
</svg>